# xmcd CD database file
#
# Track frame offsets:
#	150
#	23605
#	48327
#	69477
#	96577
#	116965
#	138750
#	162585
#	191695
#	216847
#	233682
#
# Disc length: 3905 seconds
#
# Revision: 0
# Processed by: cddbd v1.5PL3 Copyright (c) Steve Scherf et al.
# Submitted via: CDex 1.51
#
DISCID=9c0f3f0b
DTITLE=Various Artist - Jazz In Melbourne2
DYEAR=1900
DGENRE=Jazz
TTITLE0=Jamie Oehlers - Velocity
TTITLE1=Archaeopteryx - Duo In Seven
TTITLE2=Kynan Robinson - H. B. Yaction
TTITLE3=Hustas/Keller - Icedreaming
TTITLE4=Dan Nilsson - Milton
TTITLE5=Brian Brown - Time With You
TTITLE6=Andrew Keller Quintet - The Amplified Small
TTITLE7=Unlokked - Heritage
TTITLE8=Society Syncopators - New Orleans Function
TTITLE9=The String Band - Jamstring
TTITLE10=Paul Williamson's Hammond Combo - Hook, Line And Boatshed
EXTD=
EXTT0=
EXTT1=
EXTT2=
EXTT3=
EXTT4=
EXTT5=
EXTT6=
EXTT7=
EXTT8=
EXTT9=
EXTT10=
PLAYORDER=
